<?xml version="1.0" encoding="UTF-8"?>
<svg id="Capa_1" xmlns="http://www.w3.org/2000/svg" xmlns:xlink="http://www.w3.org/1999/xlink" version="1.1" viewBox="0 0 660.7 239.7">
  <!-- Generator: Adobe Illustrator 30.1.0, SVG Export Plug-In . SVG Version: 2.1.1 Build 136)  -->
  <defs>
    <style>
      .st0, .st1 {
        fill: #fff;
      }

      .st1 {
        stroke: url(#Degradado_sin_nombre_85);
        stroke-linecap: round;
        stroke-linejoin: round;
        stroke-width: 3px;
      }

      .st2 {
        fill: #d95599;
      }
    </style>
    <linearGradient id="Degradado_sin_nombre_85" data-name="Degradado sin nombre 85" x1="557.1" y1="84.5" x2="634.1" y2="84.5" gradientUnits="userSpaceOnUse">
      <stop offset="0" stop-color="#dd75ab"/>
      <stop offset="1" stop-color="#da5498"/>
    </linearGradient>
  </defs>
  <g>
    <path class="st1" d="M564.7,56.7c1.7-.8,3.8-2.2,6.5-3-4.3,3.3-8.3,8.9-12,12.9,7.2-2.4,16.4-8.2,22.4-12.9-7.2,5.3-16.3,13.5-22.1,20.3,9.9-5.5,19.8-11,29.8-16.4-10.9,6.7-21.9,13.6-30.5,23,10.1-8.9,22.7-16.5,35-21.9-9.6,9.6-22,16.9-32.2,25.4,19-6.7,33.9-24.1,53.4-29.2-17.9,9.7-33.5,23.8-48.2,37.4,11.9-6.1,20.2-15.5,31.2-22.6s17.2-10.3,26.3-13.9c-10,7.9-13,9.7-23.8,16.7s-25.1,16.1-30.8,26.2c7.2-2.3,13.8-6.3,20.2-10.4,13-8.1,24.6-18.7,37.6-26.8-19,10.3-35.5,25.2-51.7,39.4,20.1-6.5,34.6-24.9,54.6-31.8-19.6,6.7-37.3,19-50.4,35.1,9.7-3.6,17.8-9,25.8-14.2s18.3-11.9,27.1-16.2c-6.7,8.6-18.4,16.1-27.4,22.3-7.4,5.1-14.8,10.2-22.3,15.4,16.7-6.5,32-19.6,48.4-27.9-13.3,9.5-29.5,20.2-41.5,31.8,11.4-6.2,22.2-13.9,33.6-20.1"/>
    <g>
      <path class="st0" d="M43.5,116.4c-.6-.6-1-1.3-1.4-2.1s-.5-1.6-.5-2.5v-52.3c0-1.8.6-3.3,1.9-4.6,1.3-1.2,2.8-1.8,4.6-1.8s3.3.6,4.6,1.8c1.3,1.3,1.9,2.8,1.9,4.6v21.3h22.5v-21.3c0-.9.2-1.7.5-2.5.4-.8.8-1.5,1.5-2.1.6-.6,1.3-1,2.1-1.3.8-.3,1.6-.5,2.5-.5,1.8,0,3.3.6,4.6,1.8,1.2,1.3,1.8,2.8,1.8,4.6v52.3c0,.9-.2,1.7-.5,2.5s-.8,1.5-1.4,2.1c-1.2,1.2-2.8,1.9-4.6,1.9s-1.7-.2-2.5-.5c-.8-.3-1.5-.8-2.1-1.4s-1-1.3-1.4-2.1-.5-1.6-.5-2.5v-18h-22.5v18c0,.9-.2,1.7-.5,2.5s-.8,1.5-1.4,2.1c-1.2,1.2-2.8,1.9-4.6,1.9s-3.4-.6-4.6-1.9Z"/>
      <path class="st0" d="M113.4,116.4c-2.9-1.2-5.4-2.9-7.6-5.2-2.2-2.2-3.9-4.7-5.2-7.6-1.2-2.9-1.9-6-1.9-9.2s.6-6.3,1.9-9.2c1.2-2.9,3-5.5,5.2-7.7s4.8-3.9,7.6-5.2,5.9-1.8,9.2-1.8,6.2.6,9.1,1.8c2.9,1.2,5.4,2.9,7.6,5.1,2.2,2.1,3.9,4.7,5.2,7.5,1.3,2.9,1.9,5.9,2,9.1v17.5c0,1.9-.6,3.4-1.9,4.7s-1.3,1.1-2.1,1.4c-.8.3-1.7.5-2.6.5s-2.3-.3-3.2-.8-1.7-1.3-2.3-2.3c-3.7,2.1-7.6,3.1-11.7,3.1s-6.3-.6-9.2-1.8ZM126.7,104.4c1.3-.6,2.5-1.3,3.5-2.3s1.8-2.2,2.3-3.5c.6-1.3.8-2.7.8-4.2s-.3-2.8-.8-4.2c-.6-1.3-1.3-2.5-2.3-3.5-1-1-2.1-1.7-3.5-2.3-1.3-.6-2.7-.8-4.2-.8s-2.8.3-4.1.8c-1.3.6-2.5,1.3-3.4,2.3s-1.8,2.2-2.4,3.5c-.6,1.3-.9,2.7-.9,4.2s.3,2.8.9,4.2c.6,1.3,1.4,2.5,2.4,3.5,1,1,2.1,1.7,3.4,2.3,1.3.6,2.7.8,4.1.8s2.9-.3,4.2-.8Z"/>
      <path class="st0" d="M157.7,117.2c-.8-.3-1.5-.8-2.1-1.4-1.3-1.2-2-2.7-2-4.5v-17.6c0-3.1.6-6.1,1.8-8.9,1.2-2.8,2.9-5.3,5-7.5s4.6-3.8,7.4-5c2.8-1.2,5.8-1.8,8.9-1.8s6.2.6,9.1,1.8c2.9,1.2,5.4,2.9,7.6,5,2.2,2.1,3.9,4.6,5.2,7.5,1.3,2.8,1.9,5.8,1.9,8.9v17.6c0,1.8-.6,3.3-1.8,4.5s-1.3,1-2.1,1.4c-.8.3-1.6.5-2.5.5s-1.8-.2-2.6-.5c-.8-.3-1.5-.8-2.1-1.4-1.3-1.2-2-2.7-2-4.5v-17.5c0-1.4-.3-2.7-.9-3.9-.6-1.3-1.4-2.4-2.4-3.3-1-.9-2.2-1.7-3.5-2.2-1.3-.5-2.6-.8-4-.8s-2.7.3-3.9.8c-1.2.5-2.3,1.2-3.2,2.1-.9.9-1.6,2-2.2,3.2s-.8,2.5-.9,3.9v17.8c0,1.8-.6,3.3-1.9,4.5-1.2,1.2-2.7,1.9-4.5,1.9s-1.7-.2-2.5-.5Z"/>
      <path class="st0" d="M211.8,117.2c-.8-.3-1.5-.8-2.1-1.4-1.3-1.2-2-2.7-2-4.5v-17.6c0-3.1.6-6.1,1.8-8.9,1.2-2.8,2.9-5.3,5-7.5s4.6-3.8,7.4-5c2.8-1.2,5.8-1.8,8.9-1.8s6.2.6,9.1,1.8c2.9,1.2,5.4,2.9,7.6,5,2.2,2.1,3.9,4.6,5.2,7.5,1.3,2.8,1.9,5.8,1.9,8.9v17.6c0,1.8-.6,3.3-1.8,4.5s-1.3,1-2.1,1.4c-.8.3-1.6.5-2.5.5s-1.8-.2-2.6-.5c-.8-.3-1.5-.8-2.1-1.4-1.3-1.2-2-2.7-2-4.5v-17.5c0-1.4-.3-2.7-.9-3.9-.6-1.3-1.4-2.4-2.4-3.3-1-.9-2.2-1.7-3.5-2.2-1.3-.5-2.6-.8-4-.8s-2.7.3-3.9.8c-1.2.5-2.3,1.2-3.2,2.1-.9.9-1.6,2-2.2,3.2s-.8,2.5-.9,3.9v17.8c0,1.8-.6,3.3-1.9,4.5-1.2,1.2-2.7,1.9-4.5,1.9s-1.7-.2-2.5-.5Z"/>
      <path class="st0" d="M301.7,132.3c-.8-.3-1.5-.8-2.1-1.4-1.2-1.2-1.9-2.8-1.9-4.6v-12.5c-3.5,2.4-7.3,3.7-11.1,3.7s-6.4-.6-9.4-1.9c-2.9-1.3-5.5-3-7.8-5.2s-4-4.8-5.2-7.8c-1.3-2.9-1.9-6.1-1.9-9.4v-17.7c0-.9.2-1.7.5-2.6s.8-1.5,1.4-2.1c1.3-1.3,2.8-1.9,4.6-1.9s1.7.2,2.5.5c.8.3,1.5.8,2.1,1.4.6.6,1,1.3,1.4,2.1s.5,1.7.5,2.6v17.7c0,1.5.3,2.9.9,4.3.6,1.4,1.4,2.5,2.4,3.6,1,1,2.2,1.9,3.6,2.5,1.4.6,2.8.9,4.3.9s2.8-.3,4.2-.9c1.4-.6,2.6-1.4,3.6-2.5,1-1,1.9-2.2,2.4-3.6.6-1.4.9-2.8.9-4.3v-17.7c0-.9.2-1.7.5-2.6s.8-1.5,1.4-2.1c1.3-1.3,2.8-1.9,4.6-1.9s1.7.2,2.5.5c.8.3,1.5.8,2.1,1.4.6.6,1.1,1.3,1.4,2.1.4.8.5,1.7.5,2.6v50.9c0,.9-.2,1.7-.5,2.5s-.8,1.5-1.4,2.1c-.6.6-1.3,1-2.2,1.4s-1.7.5-2.6.5-1.7-.2-2.5-.5Z"/>
      <path class="st0" d="M346.9,117.8c-.8-.3-1.5-.8-2.1-1.4s-1-1.3-1.4-2.1-.5-1.6-.5-2.5v-52.2c0-.9.2-1.7.5-2.5.3-.8.8-1.5,1.4-2.1s1.3-1,2.1-1.4c.8-.3,1.6-.5,2.5-.5h18.3c3.3,0,6.4.6,9.4,1.9,3,1.3,5.6,3,7.8,5.2,2.3,2.2,4,4.9,5.3,7.8,1.2,3,1.9,6.3,1.9,9.8s-.6,6.4-1.9,9.3c-1.3,2.9-3,5.5-5.2,7.7-2.2,2.2-4.9,3.9-7.8,5.2-3,1.2-6.1,1.9-9.4,1.9h-11.8v9.9c0,.9-.2,1.7-.5,2.5s-.8,1.5-1.4,2.1c-1.2,1.2-2.8,1.9-4.6,1.9s-1.7-.2-2.5-.5ZM367.9,89c1.5,0,2.9-.3,4.2-.9,1.4-.6,2.6-1.4,3.6-2.5,1-1,1.8-2.2,2.4-3.6.6-1.3.9-2.7.9-4.2s-.3-3-.9-4.5c-.6-1.5-1.4-2.8-2.4-3.8-1-1-2.2-1.9-3.6-2.5-1.4-.6-2.8-.9-4.2-.9h-12v22.8h12Z"/>
      <path class="st0" d="M412.7,116.4c-2.8-1.2-5.3-2.9-7.5-5s-3.8-4.6-5-7.4c-1.2-2.8-1.8-5.8-1.8-8.9v-18.1c0-.9.2-1.7.5-2.5s.8-1.5,1.4-2.1,1.3-1,2.1-1.4c.8-.3,1.6-.5,2.5-.5s1.7.2,2.5.5c.8.3,1.5.8,2.1,1.4.6.6,1,1.3,1.4,2.1s.5,1.6.5,2.5v18.2c0,1.4.3,2.8.8,4,.5,1.2,1.3,2.3,2.2,3.1.9.9,2,1.6,3.3,2.1,1.2.5,2.6.8,4,.8s2.7-.3,3.8-.8c1.1-.5,2.1-1.2,2.9-2.2.8-.9,1.4-2,1.8-3.2.4-1.2.6-2.6.6-4v-18.1c0-.8.2-1.7.5-2.5.4-.8.8-1.5,1.5-2.1.6-.6,1.3-1,2.1-1.4.8-.3,1.7-.5,2.5-.5s1.7.2,2.5.5,1.5.8,2.1,1.4,1,1.3,1.3,2.1c.3.8.5,1.6.5,2.5v18.1c0,3.2-.5,6.1-1.6,8.9-1.1,2.8-2.6,5.3-4.7,7.4-2,2.1-4.4,3.8-7.1,5-2.7,1.2-5.6,1.8-8.8,1.8s-6.1-.6-8.9-1.8Z"/>
      <path class="st0" d="M465,116.6c-2-.8-3.8-1.8-5.4-3.2-1.6-1.4-2.8-3.1-3.7-5.1s-1.3-4.1-1.3-6.3v-41.7c0-1.8.6-3.4,1.9-4.6,1.2-1.3,2.7-1.9,4.4-1.9s1.7.2,2.6.5,1.6.8,2.2,1.4c.6.6,1.1,1.3,1.5,2.1.4.8.5,1.6.5,2.5v42c.1,1.9,1.4,2.8,3.8,2.8s1.8.2,2.6.5c.8.3,1.5.8,2,1.4.6.6,1,1.3,1.3,2.1.3.8.5,1.6.5,2.5s-.2,1.7-.5,2.5c-.3.8-.8,1.5-1.3,2.1s-1.2,1-2.1,1.3c-.8.3-1.7.5-2.5.5-2.2,0-4.4-.4-6.4-1.1Z"/>
      <path class="st0" d="M485.7,64.6c-.7-.7-1.2-1.4-1.5-2.2-.4-.8-.6-1.7-.6-2.6,0-1.9.7-3.5,2.1-4.9,1.3-1.3,3-2,4.9-2s1.8.2,2.7.5c.8.3,1.6.8,2.2,1.5,1.4,1.4,2.1,3,2.1,4.9s-.7,3.5-2.1,4.9-1.4,1.2-2.2,1.5c-.8.4-1.7.5-2.7.5-1.9,0-3.5-.7-4.9-2.1ZM488,117.7c-.8-.3-1.5-.8-2.1-1.4-.6-.6-1.1-1.3-1.5-2.1-.4-.8-.5-1.6-.5-2.5v-34.8c0-.8.2-1.7.5-2.5.4-.8.8-1.5,1.5-2.1.6-.6,1.3-1,2.1-1.4s1.7-.5,2.6-.5,1.7.2,2.5.5c.8.3,1.5.8,2.1,1.4s1,1.3,1.3,2.1c.3.8.5,1.6.5,2.5v34.8c0,.8-.2,1.7-.5,2.5-.3.8-.8,1.5-1.4,2.1s-1.3,1-2.1,1.4-1.6.5-2.5.5-1.7-.2-2.5-.5Z"/>
      <path class="st0" d="M519,116.4c-2.9-1.2-5.4-2.9-7.6-5.2-2.2-2.2-3.9-4.7-5.2-7.6-1.2-2.9-1.9-6-1.9-9.2s.6-6.3,1.9-9.2c1.2-2.9,3-5.5,5.2-7.7,2.2-2.2,4.8-3.9,7.6-5.2s5.9-1.8,9.2-1.8,5,.3,6.7,1,3.1,1.7,4.2,3.1v-14.7c0-1.9.6-3.5,1.9-4.8,1.2-1.3,2.7-1.9,4.6-1.9s1.7.2,2.5.5c.8.3,1.5.8,2.1,1.4.6.6,1,1.3,1.4,2.2s.5,1.7.5,2.7v34.5c0,3.2-.6,6.3-1.8,9.2s-2.9,5.4-5.2,7.6c-2.2,2.2-4.7,3.9-7.6,5.1-2.9,1.2-6,1.9-9.2,1.9s-6.3-.6-9.2-1.8ZM532.3,104.4c1.3-.6,2.5-1.3,3.5-2.3s1.8-2.2,2.3-3.5c.6-1.3.8-2.7.8-4.2s-.3-2.8-.8-4.2c-.6-1.3-1.3-2.5-2.3-3.5-1-1-2.1-1.7-3.5-2.3-1.3-.6-2.7-.8-4.2-.8s-2.8.3-4.1.8c-1.3.6-2.5,1.3-3.4,2.3-1,1-1.8,2.2-2.4,3.5-.6,1.3-.9,2.7-.9,4.2s.3,2.8.9,4.2c.6,1.3,1.4,2.5,2.4,3.5,1,1,2.1,1.7,3.4,2.3,1.3.6,2.7.8,4.1.8s2.9-.3,4.2-.8Z"/>
    </g>
  </g>
  <g>
    <path class="st2" d="M219,178.8c-.5.3-1.1.7-1.9,1.1-.8.4-1.7.7-2.8,1-1.1.3-2.3.4-3.5.4-2.2,0-4.2-.4-5.9-1.2-1.8-.8-3.2-1.8-4.5-3.1-1.2-1.3-2.2-2.8-2.8-4.5s-1-3.5-1-5.4.3-4,1-5.8c.7-1.8,1.7-3.3,2.9-4.6s2.7-2.3,4.4-3.1c1.7-.7,3.6-1.1,5.6-1.1s3.2.2,4.6.7c1.4.5,2.6,1,3.5,1.6l-1.5,3.5c-.8-.5-1.7-1-2.8-1.5-1.1-.5-2.3-.7-3.7-.7s-2.7.3-3.9.8c-1.2.5-2.3,1.3-3.2,2.3-.9,1-1.7,2.1-2.2,3.5-.5,1.3-.8,2.7-.8,4.2s.2,3,.7,4.3c.5,1.3,1.2,2.5,2.1,3.4.9,1,2,1.7,3.3,2.3,1.3.5,2.7.8,4.3.8s2.7-.2,3.8-.7c1.1-.4,2-.9,2.8-1.5l1.6,3.4Z"/>
    <path class="st2" d="M225.4,166.9c0-2,.4-3.8,1.1-5.5.7-1.7,1.8-3.3,3.1-4.6,1.3-1.3,2.9-2.4,4.6-3.2,1.7-.8,3.6-1.2,5.6-1.2s3.8.4,5.6,1.2c1.7.8,3.3,1.8,4.6,3.2,1.3,1.3,2.4,2.9,3.1,4.6.8,1.7,1.1,3.6,1.1,5.5s-.4,3.9-1.1,5.6c-.8,1.7-1.8,3.3-3.1,4.6-1.3,1.3-2.9,2.3-4.6,3.1-1.7.7-3.6,1.1-5.6,1.1s-3.9-.4-5.6-1.1c-1.7-.7-3.3-1.7-4.6-3-1.3-1.3-2.4-2.8-3.1-4.6-.7-1.7-1.1-3.6-1.1-5.7ZM229.3,166.9c0,1.5.3,2.9.8,4.2.5,1.3,1.3,2.4,2.3,3.4,1,1,2.1,1.8,3.4,2.3,1.3.6,2.7.8,4.1.8s2.8-.3,4.1-.8c1.3-.6,2.4-1.3,3.3-2.3.9-1,1.7-2.1,2.2-3.4s.8-2.7.8-4.2-.3-2.9-.8-4.2-1.3-2.5-2.3-3.5c-1-1-2.1-1.8-3.4-2.3-1.3-.6-2.6-.8-4.1-.8s-2.9.3-4.1.9c-1.3.6-2.4,1.4-3.4,2.3-1,1-1.7,2.1-2.2,3.5-.5,1.3-.8,2.7-.8,4.2Z"/>
    <path class="st2" d="M276.9,157.8c-1-.5-2-.9-3.2-1.3-1.1-.4-2.3-.5-3.4-.5s-2.7.4-3.6,1.1-1.3,1.6-1.3,2.8.3,1.6.9,2.2c.6.6,1.3,1.1,2.3,1.6.9.4,1.9.9,2.9,1.2.9.3,1.8.7,2.6,1.1.9.4,1.6.9,2.3,1.6.7.6,1.2,1.4,1.6,2.3.4.9.6,2,.6,3.4s-.4,2.8-1.1,4.1c-.7,1.2-1.8,2.2-3.2,2.9-1.4.7-3,1.1-4.9,1.1s-2.4-.1-3.6-.4c-1.1-.3-2.2-.7-3.1-1.1-1-.5-1.8-.9-2.6-1.4l1.7-3c.6.4,1.3.9,2.1,1.3.8.4,1.7.7,2.5,1,.9.2,1.7.4,2.6.4s1.8-.2,2.6-.5c.9-.3,1.6-.8,2.2-1.5.6-.7.9-1.6.9-2.7s-.3-1.8-.8-2.4c-.5-.6-1.2-1.2-2-1.6s-1.7-.9-2.7-1.2c-.9-.3-1.8-.7-2.7-1.1s-1.8-.9-2.5-1.5c-.8-.6-1.4-1.3-1.9-2.2-.5-.9-.7-1.9-.7-3.1s.4-2.8,1.1-3.9c.7-1.1,1.7-2,2.9-2.6s2.7-1,4.3-1c1.8,0,3.4.2,4.8.7,1.4.4,2.6,1,3.7,1.6l-1.4,2.9Z"/>
    <path class="st2" d="M286.8,180.9v-29.1h0l14.8,21-1.6-.3,14.7-20.7h0v29.1h-3.7v-20.5l.2,1.9-10.6,15.1h0l-10.8-15.1.7-1.8v20.4h-3.7Z"/>
    <path class="st2" d="M324.8,152.7h18.3v3.6h-14.5v8.6h13v3.6h-13v8.7h15.1v3.6h-18.9v-28.2ZM339.8,145.8l-5,5.2h-2.3l3.2-5.2h4Z"/>
    <path class="st2" d="M349.9,152.7h18.7v3.6h-7.6v24.6h-3.8v-24.6h-7.4v-3.6Z"/>
    <path class="st2" d="M376.5,152.7h3.8v28.2h-3.8v-28.2Z"/>
    <path class="st2" d="M410.9,178.8c-.5.3-1.1.7-1.9,1.1-.8.4-1.7.7-2.8,1-1.1.3-2.3.4-3.5.4-2.2,0-4.2-.4-5.9-1.2-1.8-.8-3.2-1.8-4.5-3.1-1.2-1.3-2.2-2.8-2.8-4.5s-1-3.5-1-5.4.3-4,1-5.8c.7-1.8,1.7-3.3,2.9-4.6s2.7-2.3,4.4-3.1,3.6-1.1,5.6-1.1,3.2.2,4.6.7c1.4.5,2.6,1,3.5,1.6l-1.5,3.5c-.8-.5-1.7-1-2.8-1.5-1.1-.5-2.3-.7-3.7-.7s-2.7.3-3.9.8c-1.2.5-2.3,1.3-3.2,2.3-.9,1-1.7,2.1-2.2,3.5-.5,1.3-.8,2.7-.8,4.2s.2,3,.7,4.3c.5,1.3,1.2,2.5,2.1,3.4.9,1,2,1.7,3.3,2.3,1.3.5,2.7.8,4.3.8s2.7-.2,3.8-.7c1.1-.4,2-.9,2.8-1.5l1.6,3.4Z"/>
    <path class="st2" d="M417.3,166.9c0-2,.4-3.8,1.1-5.5.7-1.7,1.8-3.3,3.1-4.6,1.3-1.3,2.9-2.4,4.6-3.2,1.7-.8,3.6-1.2,5.6-1.2s3.8.4,5.6,1.2c1.7.8,3.3,1.8,4.6,3.2,1.3,1.3,2.4,2.9,3.1,4.6.8,1.7,1.1,3.6,1.1,5.5s-.4,3.9-1.1,5.6c-.8,1.7-1.8,3.3-3.1,4.6-1.3,1.3-2.9,2.3-4.6,3.1-1.7.7-3.6,1.1-5.6,1.1s-3.9-.4-5.6-1.1c-1.7-.7-3.3-1.7-4.6-3-1.3-1.3-2.4-2.8-3.1-4.6-.7-1.7-1.1-3.6-1.1-5.7ZM421.2,166.9c0,1.5.3,2.9.8,4.2.5,1.3,1.3,2.4,2.3,3.4,1,1,2.1,1.8,3.4,2.3,1.3.6,2.7.8,4.1.8s2.8-.3,4.1-.8c1.3-.6,2.4-1.3,3.3-2.3.9-1,1.7-2.1,2.2-3.4s.8-2.7.8-4.2-.3-2.9-.8-4.2-1.3-2.5-2.3-3.5c-1-1-2.1-1.8-3.4-2.3-1.3-.6-2.6-.8-4.1-.8s-2.9.3-4.1.9c-1.3.6-2.4,1.4-3.4,2.3-1,1-1.7,2.1-2.2,3.5-.5,1.3-.8,2.7-.8,4.2Z"/>
    <path class="st2" d="M468.8,157.8c-1-.5-2-.9-3.2-1.3-1.1-.4-2.3-.5-3.4-.5s-2.7.4-3.6,1.1-1.3,1.6-1.3,2.8.3,1.6.9,2.2c.6.6,1.3,1.1,2.3,1.6.9.4,1.9.9,2.9,1.2.9.3,1.8.7,2.6,1.1.9.4,1.6.9,2.3,1.6.7.6,1.2,1.4,1.6,2.3.4.9.6,2,.6,3.4s-.4,2.8-1.1,4.1c-.7,1.2-1.8,2.2-3.2,2.9-1.4.7-3,1.1-4.9,1.1s-2.4-.1-3.6-.4c-1.1-.3-2.2-.7-3.1-1.1-1-.5-1.8-.9-2.6-1.4l1.7-3c.6.4,1.3.9,2.1,1.3.8.4,1.7.7,2.5,1,.9.2,1.7.4,2.6.4s1.8-.2,2.6-.5c.9-.3,1.6-.8,2.2-1.5.6-.7.9-1.6.9-2.7s-.3-1.8-.8-2.4c-.5-.6-1.2-1.2-2-1.6s-1.7-.9-2.7-1.2c-.9-.3-1.8-.7-2.7-1.1s-1.8-.9-2.5-1.5c-.8-.6-1.4-1.3-1.9-2.2-.5-.9-.7-1.9-.7-3.1s.4-2.8,1.1-3.9c.7-1.1,1.7-2,2.9-2.6s2.7-1,4.3-1c1.8,0,3.4.2,4.8.7,1.4.4,2.6,1,3.7,1.6l-1.4,2.9Z"/>
  </g>
</svg>